<svg xmlns="http://www.w3.org/2000/svg" viewBox="0 0 756 729" width="512" height="512">
	<defs>
		<clipPath clipPathUnits="userSpaceOnUse" id="cp1">
			<path d="M0 0L756 0L756 729L0 729Z" />
		</clipPath>
		<linearGradient id="grd1" gradientUnits="userSpaceOnUse" x1="352.749" y1="683.843" x2="352.749" y2="20.602">
			<stop offset="0" stop-color="#d1237f" />
			<stop offset="0.019" stop-color="#d1237f" />
			<stop offset="0.5" stop-color="#f22345" />
			<stop offset="1" stop-color="#ffae1a" />
		</linearGradient>
		<clipPath clipPathUnits="userSpaceOnUse" id="cp2">
			<path d="M21.13 352.91C21.51 536.06 170.28 684.22 353.43 683.84C536.58 683.47 684.75 534.69 684.37 351.54C683.99 168.39 535.21 20.22 352.07 20.6C168.91 20.98 20.75 169.76 21.13 352.91Z" />
		</clipPath>
	</defs>
	<g clip-path="url(#cp1)">
		<path fill="url(#grd1)" d="M21.13 352.91C21.51 536.06 170.28 684.22 353.43 683.84C536.58 683.47 684.75 534.69 684.37 351.54C683.99 168.39 535.21 20.22 352.07 20.6C168.91 20.98 20.75 169.76 21.13 352.91Z" />
		<path fill="#ffffff" d="M404.2 255.25C404.2 255.25 416.25 252.93 431.17 252.9C431.17 252.9 429.44 246.87 437.2 250.59C437.2 250.59 436 227.06 455.51 227.02C475.02 226.98 476.49 241.04 476.49 241.04C476.49 241.04 478.2 237.02 486.81 236.71C495.42 236.4 503.47 244.42 502.33 250.74C502.33 250.74 511.22 245.84 514.39 253.58L554.56 254.93C554.56 254.93 500.05 259.35 472.51 259.41C444.96 259.47 404.2 255.25 404.2 255.25ZM451.28 264.62C451.28 265.33 434.52 265.94 413.84 265.99C393.16 266.03 376.39 265.49 376.39 264.77C376.39 264.06 393.15 263.45 413.83 263.4C434.52 263.36 451.28 263.9 451.28 264.62ZM488.75 273.58C488.75 274.77 471.99 275.77 451.31 275.81C430.62 275.85 413.86 274.92 413.85 273.73C413.85 272.55 430.62 271.55 451.3 271.51C471.98 271.46 488.75 272.39 488.75 273.58ZM97.55 325.92L158.15 321.22C158.15 321.22 157.54 304.64 177 315.47C177 315.47 178.69 300.02 193.57 305.14C193.57 305.14 196.94 276.54 228.4 282.77C228.4 282.77 231.23 269.04 255.82 268.99C280.4 268.93 278.72 285.52 278.72 285.52C278.72 285.52 310.74 283.74 309.08 310.62C309.08 310.62 325.09 308.3 329.12 321.44L397.74 325.3L247.65 329.04L97.55 325.92ZM227.97 349.95C227.97 351.06 205.83 352 178.51 352.06C151.19 352.11 129.05 351.26 129.04 350.16C129.04 349.05 151.18 348.11 178.5 348.05C205.82 348 227.96 348.85 227.97 349.95ZM211.89 415.53C211.89 418.19 188.96 420.39 160.67 420.45C132.38 420.51 109.44 418.4 109.43 415.74C109.43 413.08 132.36 410.88 160.65 410.82C188.94 410.76 211.88 412.87 211.89 415.53ZM354.88 335.25C354.88 336.59 333.5 337.73 307.14 337.78C280.77 337.84 259.39 336.79 259.38 335.45C259.38 334.11 280.76 332.98 307.13 332.92C333.49 332.87 354.87 333.91 354.88 335.25ZM320.04 346.71C320.04 347.47 307.94 348.11 293.02 348.14C278.09 348.17 265.99 347.58 265.98 346.82C265.98 346.06 278.08 345.42 293.01 345.39C307.94 345.36 320.04 345.95 320.04 346.71ZM312.68 399.96C312.69 402.26 275.96 404.21 230.64 404.3C185.33 404.4 148.6 402.6 148.59 400.3C148.59 397.99 185.31 396.05 230.63 395.95C275.94 395.86 312.68 397.65 312.68 399.96ZM454 325.08L478.1 323.02C478.1 323.02 480.09 315.27 484.7 319.28C484.7 319.28 487.52 297.75 501.89 308.62C501.89 308.62 508.76 302.3 515.95 307.45C523.13 312.6 521.43 321.21 521.43 321.21C521.43 321.21 524.3 320.63 525.45 323.78L546.4 324.89L500.2 326.99L454 325.08ZM498.78 331.3C498.78 332.09 493.45 332.75 486.88 332.76C480.3 332.77 474.96 332.14 474.96 331.35C474.96 330.56 480.29 329.9 486.87 329.89C493.45 329.88 498.78 330.51 498.78 331.3ZM557.32 330.46C557.32 331.65 549.1 332.63 538.96 332.65C528.81 332.67 520.59 331.73 520.59 330.54C520.59 329.35 528.81 328.37 538.95 328.35C549.09 328.33 557.31 329.27 557.32 330.46ZM536 359.99C536 360.82 514.23 361.54 487.37 361.6C460.5 361.65 438.73 361.02 438.72 360.19C438.72 359.36 460.5 358.64 487.36 358.58C514.22 358.53 536 359.16 536 359.99ZM525.22 352.05C525.22 352.53 516.75 352.93 506.29 352.95C495.83 352.97 487.35 352.6 487.35 352.13C487.34 351.65 495.82 351.25 506.28 351.23C516.74 351.21 525.22 351.58 525.22 352.05ZM525.25 367.54C525.25 366.59 513.01 365.85 497.92 365.88C482.83 365.91 470.59 366.71 470.59 367.66C470.59 368.61 482.83 369.36 497.93 369.32C513.02 369.29 525.26 368.5 525.25 367.54Z" />
		<path fill="#f98714" d="M475.67 449.72C475.81 517.5 420.98 572.55 353.2 572.69C285.43 572.83 230.38 518 230.24 450.23C230.1 382.46 284.92 327.4 352.7 327.26C420.47 327.12 475.53 381.95 475.67 449.72Z" />
		<g clip-path="url(#cp2)">
			<path fill="#26efef" d="M674.64 683.18L32.25 684.51L31.9 515.25L674.29 513.92L674.64 683.18Z" />
			<path fill="#21ced6" d="M674.64 683.18L32.25 684.51L31.97 547.38L674.36 546.06L674.64 683.18Z" />
			<path fill="#22a5d3" d="M674.71 715.72L32.32 717.04L32.04 579.92L674.43 578.59L674.71 715.72Z" />
			<path fill="#161342" d="M32.17 572.38C32.17 572.38 157.31 487.52 674.55 638.78L674.5 683.81L32.03 683.81L32.17 572.38Z" />
		</g>
		<path fill="#161342" d="M243.22 234.66C243.22 234.66 234.42 214.72 217.37 212.04L234.09 241.16L220.8 248.59C220.8 248.59 225.94 256.16 231.45 256.79L238.73 245.17L268 257.11C268 257.11 264.75 246.48 248.91 240.28L251.88 232.67C251.88 232.67 244.9 230.76 243.22 234.66ZM596.76 382.3C596.76 382.3 602.14 379.45 607.43 379.91C612.73 380.38 624.65 386.21 637.41 385.15C650.16 384.08 632.21 386.95 632.21 387.61C632.21 388.28 634.01 387.23 634.01 388.08C634.01 388.93 629.85 389.42 630.51 390.17C631.18 390.92 634.68 390.73 634.87 391.77C635.06 392.8 629.67 392.25 624.94 389.9C620.21 387.54 627.5 394.9 626.48 401.52C626.48 401.52 622.88 398.03 622.02 398.03C621.18 398.03 622.5 400.01 621.18 400.58C619.86 401.15 619.09 393.4 617.76 394.26C616.44 395.11 615.8 401.73 614.57 401.92C613.34 402.11 613.24 400.13 612.67 399.94C612.11 399.75 613.63 406.65 612.88 406.84C612.12 407.03 610.22 402.59 609.37 402.97C608.52 403.35 611.86 409.91 610.99 410.44C609.58 411.29 599.72 399.59 602.25 386.92C602.25 386.92 596.86 385.8 596.76 382.3ZM289.86 180.92C289.86 180.92 308.35 183.42 312.34 187.4C316.34 191.37 333.78 218.87 364.22 217.72C364.22 217.72 382.35 228.19 396.84 225.27L391.03 219.12C391.03 219.12 398.65 222 402.99 220.54C407.34 219.08 394.29 218.02 393.92 214.76C393.55 211.5 417.85 219.79 419.28 213.62C420.72 207.46 378.33 207.55 377.95 199.22C377.57 190.88 408.36 186.47 406.89 177.78L401.45 177.79C401.45 177.79 409.05 169.44 407.59 167.63C406.14 165.82 396.73 171.28 396.73 171.28L401.42 162.57C401.42 162.57 372.08 163 363.77 177.14C355.47 191.29 359.1 176.79 354.52 162.67C349.94 148.55 347.4 144.21 349.93 141.66C352.46 139.12 341.96 143.49 344.15 151.1C346.34 158.7 337.94 126.11 333.59 126.12C329.24 126.13 332.88 130.1 329.98 133.01C327.09 135.91 331.03 115.25 324.15 116.35C317.27 117.46 314.8 148.26 319.18 163.83C323.56 179.4 327.91 183.74 316.3 173.26C304.68 162.77 289.86 180.92 289.86 180.92ZM119.65 368.11C119.65 368.11 130.61 361.51 134.45 362.05C138.29 362.59 132 370.83 132 370.83C132 370.83 155.04 372.39 163.25 366.36C171.47 360.33 161.63 376.53 152.3 375.45C142.97 374.37 157.25 380.1 162.73 378.72C168.21 377.34 162.47 385.03 145.73 380.95C128.99 376.87 145.19 386.16 150.95 385.6C156.71 385.04 145.48 391.96 121.61 385.68C121.61 385.68 109.81 383.49 108.18 393.91C108.18 393.91 97.22 397.23 91.17 390.66C91.17 390.66 105.42 384.05 102.12 381.59C98.83 379.12 91.98 383.8 87.31 377.23L93.34 376.94C93.34 376.94 85.93 373.67 87.29 370.1C88.65 366.53 82.9 369.29 81.25 366.96C79.6 364.63 83.17 364.35 83.17 364.35C83.17 364.35 74.94 364.91 73.01 359.16C71.07 353.4 80.96 361.88 83.7 359.13C86.44 356.39 69.76 354.78 72.74 350.93C74.59 348.55 87.41 349.62 99.06 356.64C106.63 361.2 114.31 367.99 119.65 368.11Z" />
		<path fill="none" stroke="#ffffff" stroke-width="16" d="M684.37 351.54C684.75 534.69 536.58 683.46 353.43 683.84C170.28 684.22 21.51 536.06 21.13 352.91C20.75 169.76 168.91 20.98 352.06 20.6C535.21 20.23 683.99 168.39 684.37 351.54Z" />
		<path fill="#161342" d="M585.72 191.47C585.72 191.47 537.28 200.22 513.15 250.46C489.03 300.7 493.39 317.99 493.39 317.99C493.39 317.99 459.6 296.43 469.91 261.8C480.23 227.17 498.39 225.4 498.39 225.4C498.39 225.4 484.65 229.86 472.46 239.3C461.24 247.98 501.73 163.95 585.72 191.47ZM585.72 191.47C585.72 191.47 550.19 168.61 487.51 191.67C424.82 214.73 425.35 260.16 425.35 260.16C425.35 260.16 408.37 210.44 438.6 183.55C468.83 156.67 493.07 163.54 493.07 163.54C493.07 163.54 483.11 158.49 469.71 162.79C456.31 167.08 498.21 140.41 535.88 152.63C579.61 166.82 585.72 191.47 585.72 191.47ZM585.72 191.47C585.72 191.47 561.35 126.62 472.66 124.21C472.66 124.21 485.58 96.06 520.64 102.48C529.91 104.18 537.98 108.25 544.83 113.32C544.83 113.32 542.71 105.25 536.64 101.47C530.58 97.7 593.76 104.49 585.72 191.47ZM585.72 191.47C585.72 191.47 578.64 117.07 628.8 103.55L622.34 115.25C622.34 115.25 669.43 84 697.63 124.18C697.63 124.18 629.72 128.21 585.72 191.47ZM585.72 191.47C585.72 191.47 633.77 133.97 697.7 154.61L680.26 162.14C680.26 162.14 754.11 164.88 741.56 233.55C741.56 233.55 703.42 195.09 660.13 188.14C613.96 180.74 585.72 191.47 585.72 191.47ZM585.72 191.47C585.72 191.47 665.29 171.98 694.26 233.65L681.56 230.21C681.56 230.21 711.9 256.68 697.99 294.21C693.01 307.62 686.65 316.54 680.53 322.47C680.53 322.47 670 222.73 585.72 191.47ZM588.66 191.46L582.23 191.48C582.23 191.48 601.9 257.47 547.92 371.8C493.93 486.13 461.69 518.5 461.89 615.41L539.19 615.25C539.19 615.25 515.91 514.93 572.15 374.06C628.39 233.19 588.66 191.46 588.66 191.46ZM358.7 327.25C358.7 327.25 394.41 333.55 412.34 370.49C430.26 407.43 427.1 420.18 427.1 420.18C427.1 420.18 451.93 404.19 444.23 378.71C436.53 353.23 423.14 351.98 423.14 351.98C423.14 351.98 433.28 355.23 442.28 362.14C450.58 368.51 420.49 306.72 358.7 327.25ZM358.7 327.25C358.7 327.25 384.8 310.3 431.06 327.1C477.31 343.9 477.06 377.37 477.06 377.37C477.06 377.37 489.41 340.69 467.06 320.97C444.71 301.26 426.87 306.39 426.87 306.39C426.87 306.39 434.19 302.65 444.08 305.76C453.97 308.89 423.02 289.37 395.3 298.49C363.13 309.07 358.7 327.25 358.7 327.25ZM358.7 327.25C358.7 327.25 376.45 279.4 441.79 277.36C441.79 277.36 432.19 256.66 406.38 261.49C399.55 262.77 393.62 265.8 388.59 269.56C388.59 269.56 390.13 263.6 394.58 260.8C399.04 258 352.51 263.2 358.7 327.25ZM358.7 327.25C358.7 327.25 363.69 272.42 326.69 262.61L331.49 271.21C331.49 271.21 296.7 248.33 276.05 278.02C276.05 278.02 326.09 280.78 358.7 327.25ZM358.7 327.25C358.7 327.25 323.13 285.04 276.09 300.43L288.96 305.93C288.96 305.93 234.57 308.17 244.02 358.72C244.02 358.72 272 330.27 303.87 325.03C337.86 319.43 358.7 327.25 358.7 327.25ZM358.7 327.25C358.7 327.25 300.02 313.13 278.87 358.65L288.21 356.08C288.21 356.08 265.94 375.68 276.3 403.28C280.01 413.15 284.72 419.7 289.25 424.04C289.25 424.04 296.7 350.54 358.7 327.25ZM356.53 327.25L361.27 327.24C361.27 327.24 346.98 375.92 387.1 459.99C427.22 544.05 451.07 567.8 451.21 639.2L394.27 639.31C394.27 639.31 411.11 565.33 369.25 461.72C327.39 358.11 356.53 327.25 356.53 327.25Z" />
	</g>
</svg>