<svg xmlns="http://www.w3.org/2000/svg" viewBox="0 0 1440 320">
    <defs>
        <linearGradient id="grad1" x1="0%" y1="50%" x2="100%" y2="50%">
            <stop offset="0%" style="stop-color:#FEA61C;stop-opacity:1" />
            <stop offset="100%" style="stop-color:#E22361;stop-opacity:0.5" />
        </linearGradient>
    </defs>
    <path fill="url(#grad1)" fill-opacity="1" d="M0,224L34.3,208C68.6,192,137,160,206,144C274.3,128,343,128,411,133.3C480,139,549,149,617,128C685.7,107,754,53,823,69.3C891.4,85,960,171,1029,192C1097.1,213,1166,171,1234,165.3C1302.9,160,1371,192,1406,208L1440,224L1440,320L1405.7,320C1371.4,320,1303,320,1234,320C1165.7,320,1097,320,1029,320C960,320,891,320,823,320C754.3,320,686,320,617,320C548.6,320,480,320,411,320C342.9,320,274,320,206,320C137.1,320,69,320,34,320L0,320Z"></path>
</svg>