<?xml version="1.0" standalone="no"?>
<svg xmlns="http://www.w3.org/2000/svg" viewBox="0 0 1440 320">
    <defs>
        <linearGradient id="grad1" x1="100%" y1="50%" x2="0%" y2="50%">
            <stop offset="0%" style="stop-color:#FEA61C;stop-opacity:1" />
            <stop offset="100%" style="stop-color:#E22361;stop-opacity:0.2" />
        </linearGradient>
    </defs>
    <path fill="url(#grad1)" fill-opacity="1" d="M0,128L34.3,122.7C68.6,117,137,107,206,133.3C274.3,160,343,224,411,229.3C480,235,549,181,617,186.7C685.7,192,754,256,823,234.7C891.4,213,960,107,1029,80C1097.1,53,1166,107,1234,144C1302.9,181,1371,203,1406,213.3L1440,224L1440,320L1405.7,320C1371.4,320,1303,320,1234,320C1165.7,320,1097,320,1029,320C960,320,891,320,823,320C754.3,320,686,320,617,320C548.6,320,480,320,411,320C342.9,320,274,320,206,320C137.1,320,69,320,34,320L0,320Z"></path>
</svg>