<?xml version="1.0" standalone="no"?>
<svg xmlns="http://www.w3.org/2000/svg" viewBox="0 0 1440 320">
    <defs>
        <linearGradient id="grad1" x1="0%" y1="50%" x2="100%" y2="50%">
            <stop offset="0%" style="stop-color:#FEA61C;stop-opacity:1" />
            <stop offset="100%" style="stop-color:#E22361;stop-opacity:0.1" />
        </linearGradient>
    </defs>
    <path fill="url(#grad1)" fill-opacity="1" d="M0,64L34.3,96C68.6,128,137,192,206,197.3C274.3,203,343,149,411,138.7C480,128,549,160,617,181.3C685.7,203,754,213,823,202.7C891.4,192,960,160,1029,138.7C1097.1,117,1166,107,1234,128C1302.9,149,1371,203,1406,229.3L1440,256L1440,320L1405.7,320C1371.4,320,1303,320,1234,320C1165.7,320,1097,320,1029,320C960,320,891,320,823,320C754.3,320,686,320,617,320C548.6,320,480,320,411,320C342.9,320,274,320,206,320C137.1,320,69,320,34,320L0,320Z"></path>
</svg>